[url=http://postimg.org/image/wlcbtrg9j/][img]http://s23.postimg.org/wlcbtrg9j/Happy_Days.jpg[/img][/url]

MOVIE IMBD : http://www.imdb.com/title/tt1214961/

Cast : Varun Sandesh as Chandrasekar
Tamanna Bhatia as Madhu
Nikhil Siddharth as Rajesh
Raahul as Arjun (Tyson)
Vamsee Krishna as Shankar
Gayaturi Rao as Aparna (Appu)
Monali Chowdhary as Sangeetha
Sonia Deepti as Shravanthi (Shravs)
Kamalinee Mukherjee as Shreya (Guest Appearance)
Krishnudu
Ranadheer Reddy as Naveen
Vamshi as Paidithalli
Aadarsh as Sanjay
Adithya as Praveen
Srikanth
Nachiketh
Satya
Dileep
Chaitanya Chitrada
Kamal
Praveen
Suresh
Krishna
Sowjanya
Priyanka
Hima Bindu
Deepthi
Shuruthi as Prasanti

Plot :Happy Days is a college story that explores the lives of eight friends through the four years of their engineering course. Each one joins with their own set of idiosyncrasies and eccentricities. What starts off as a journey of individuals, slowly becomes a collective one as they bond. They bond as they go through bullying seniors, tyrant professors, intense examinations, celebrations, Love, Betrayal, Sacrifice and every possible experience that an individual goes through in a college. And finally they realize their potential.
The film is a true representation of the wonderful & formative years in college. It depicts the stories of concerned parents and inspiring professors. It captures the raw energy in college going students. Full of dance, romance, music and mastiΓÇª It has all the class rooms tiffs, mandatory fights, hot looking professors, love at first sights, crushes, break ups, first kisses, hostel humor, bikes, friendships and betrayals, birthday parties, prom nights, achievements, failures, exams, summers, picnics and parties, careers and true lovesΓÇª. The film brings back the nostalgia of college days which are the most memorable days of everyoneΓÇÖs lives..


General
Unique ID : 176695146608650980054508740353039587029 (0x84EE3F54D46AF2C18E6342C5AF6CD6D5)
Complete name : D:New folderHappy Days (2007) Telugu - DVD - Rip -720p - x264 - AC3 - PAVANHappy Days (2007) Telugu - DVD - Rip -720p- x264 - AC3 - PAVAN.mkv
Format : Matroska
Format version : Version 2
File size : 1.17 GiB
Duration : 2h 39mn
Overall bit rate : 1 049 Kbps
Encoded date : UTC 2013-05-30 05:10:38
Writing application : mkvmerge v6.1.0 ('Old Devil') built on Mar 2 2013 14:32:37
Writing library : libebml v1.3.0 + libmatroska v1.4.0

Video
ID : 1
Format : AVC
Format/Info : Advanced Video Codec
Format profile : High@L3.1
Format settings, CABAC : Yes
Format settings, ReFrames : 4 frames
Codec ID : V_MPEG4/ISO/AVC
Duration : 2h 39mn
Bit rate : 919 Kbps
Width : 1 280 pixels
Height : 528 pixels
Display aspect ratio : 2.40:1
Frame rate mode : Constant
Frame rate : 23.976 fps
Color space : YUV
Chroma subsampling : 4:2:0
Bit depth : 8 bits
Scan type : Progressive
Bits/(Pixel*Frame) : 0.057
Stream size : 1.00 GiB (86%)
Writing library : x264 core 130 r2273 b3065e6
Encoding settings : cabac=1 / ref=3 / deblock=1:0:0 / analyse=0x3:0x113 / me=hex / subme=7 / psy=1 / psy_rd=1.00:0.00 / mixed_ref=1 / me_range=16 / chroma_me=1 / trellis=1 / 8x8dct=1 / cqm=0 / deadzone=21,11 / fast_pskip=1 / chroma_qp_offset=-2 / threads=3 / lookahead_threads=1 / sliced_threads=0 / nr=0 / decimate=1 / interlaced=0 / bluray_compat=0 / constrained_intra=0 / bframes=3 / b_pyramid=2 / b_adapt=1 / b_bias=0 / direct=1 / weightb=1 / open_gop=0 / weightp=2 / keyint=240 / keyint_min=23 / scenecut=40 / intra_refresh=0 / rc_lookahead=40 / rc=2pass / mbtree=1 / bitrate=919 / ratetol=1.0 / qcomp=0.60 / qpmin=0 / qpmax=69 / qpstep=4 / cplxblur=20.0 / qblur=0.5 / ip_ratio=1.40 / aq=1:1.00
Language : English
Default : Yes
Forced : No

Audio
ID : 2
Format : AC-3
Format/Info : Audio Coding 3
Mode extension : CM (complete main)
Format settings, Endianness : Big
Codec ID : A_AC3
Duration : 2h 39mn
Bit rate mode : Constant
Bit rate : 128 Kbps
Channel(s) : 6 channels
Channel positions : Front: L C R, Side: L R, LFE
Sampling rate : 48.0 KHz
Bit depth : 16 bits
Compression mode : Lossy
Stream size : 146 MiB (12%)
Default : Yes
Forced : No

[url=http://postimg.org/image/vquw9oe87/][img]http://s7.postimg.org/vquw9oe87/image.jpg[/img][/url]
[url=http://postimg.org/image/9b3a019mv/][img]http://s7.postimg.org/9b3a019mv/image.jpg[/img][/url]
[url=http://postimg.org/image/5z4z6qhvr/][img]http://s7.postimg.org/5z4z6qhvr/image.jpg[/img][/url]
[url=http://postimg.org/image/z96w62f47/][img]http://s7.postimg.org/z96w62f47/image.jpg[/img][/url]
[url=http://postimg.org/image/y9glaczyf/][img]http://s7.postimg.org/y9glaczyf/image.jpg[/img][/url]
[url=http://postimg.org/image/7xbn4qadj/][img]http://s7.postimg.org/7xbn4qadj/image.jpg[/img][/url]

JOIN US ON: 

PLZ SEED UPTO 1:1 RATIO .